<?xml version="1.0" standalone="no"?>
<!DOCTYPE svg PUBLIC "-//W3C//DTD SVG 20010904//EN"
 "http://www.w3.org/TR/2001/REC-SVG-20010904/DTD/svg10.dtd">
<svg version="1.0" xmlns="http://www.w3.org/2000/svg"
 width="526.000000pt" height="508.000000pt" viewBox="0 0 526.000000 508.000000"
 preserveAspectRatio="xMidYMid meet">
<metadata>
Created by potrace 1.15, written by Peter Selinger 2001-2017
</metadata>
<g transform="translate(0.000000,508.000000) scale(0.100000,-0.100000)"
fill="#000000" stroke="none">
<path d="M3480 4860 l0 -59 -152 -3 -153 -3 -5 -43 -5 -44 -32 46 -33 46 -185
0 -185 0 0 -145 c0 -90 -4 -145 -10 -145 -5 0 -10 5 -10 12 0 6 -59 71 -132
145 l-132 133 -241 0 -240 0 -127 -127 c-126 -127 -127 -129 -130 -178 l-3
-50 -34 50 c-18 28 -90 107 -160 178 l-126 127 -440 0 -440 0 -128 -128 -127
-127 0 -260 0 -260 152 -155 153 -155 -152 -3 -153 -3 0 -182 1 -182 185 -157
185 -158 70 0 70 0 -3 -127 -3 -128 -97 -3 -97 -3 -3 -57 -3 -57 -152 -3 -153
-3 0 -126 0 -127 62 -63 62 -63 -62 -63 -62 -63 0 -233 0 -233 133 -129 132
-129 50 0 50 0 -123 -123 -122 -122 0 -155 0 -155 163 -162 c89 -88 225 -216
301 -282 l139 -121 371 0 371 0 117 117 118 118 0 145 0 145 -140 140 c-77 77
-140 143 -140 147 0 5 63 8 140 8 l140 0 0 40 c0 22 2 40 5 40 3 0 21 -18 41
-40 l36 -40 134 0 133 0 16 57 c9 32 23 78 30 103 7 25 17 60 20 77 4 18 10
33 13 33 4 0 51 -44 105 -98 l97 -97 0 -295 1 -295 179 -153 180 -152 235 0
235 0 0 67 0 66 69 -66 69 -67 661 0 661 0 0 132 0 133 -72 72 -72 73 72 0 72
0 0 282 0 282 -57 58 -57 58 57 0 57 0 0 106 0 105 -60 56 c-33 30 -60 59 -60
65 0 5 25 8 58 7 l57 -3 3 129 3 129 -48 48 -47 48 47 0 47 0 0 102 0 103 -82
82 -83 83 83 0 82 0 0 158 0 157 -135 135 c-74 74 -135 138 -135 142 0 5 61 8
135 8 l135 0 0 240 0 240 50 0 50 0 0 158 0 158 -50 49 -50 49 0 256 0 255
-161 183 -160 182 -177 -2 -177 -3 -5 -29 -5 -28 -19 21 c-18 20 -29 21 -167
21 l-148 0 -3 58 -3 57 -182 3 -183 2 0 -60z m310 -39 c0 -84 -7 -81 161 -81
l149 0 0 -75 0 -75 -437 2 -438 3 -3 72 -3 72 153 3 153 3 3 63 3 62 129 0
130 0 0 -49z m720 -366 l0 -305 50 0 50 0 0 -130 0 -130 -50 0 -50 0 0 -240 0
-240 -135 0 -135 0 0 675 0 675 135 0 135 0 0 -305z m-3032 182 l112 -114 0
-239 0 -239 -117 -117 -118 -118 -410 0 -410 0 -118 118 -117 117 0 239 0 239
112 114 112 113 421 0 421 0 112 -113z m1051 6 l111 -106 0 -461 0 -461 -107
-107 -108 -108 -220 0 -220 0 -112 112 -113 113 0 449 0 449 112 114 112 113
216 0 217 0 112 -107z m521 -198 l0 -305 45 0 45 0 0 -130 0 -130 -45 0 -45 0
-2 -532 -3 -533 -130 0 -130 0 -3 968 -2 967 135 0 135 0 0 -305z m937 -57
l113 -113 0 -330 0 -330 -107 -107 -108 -108 -220 0 -220 0 -112 112 -113 113
0 320 0 320 117 117 118 118 210 0 210 0 112 -112z m-2402 -858 l0 -125 -250
-5 -250 -5 -5 -290 -5 -290 -130 0 -130 0 -5 290 -5 290 -252 3 -253 2 0 124
c0 67 3 126 7 129 3 4 293 6 642 5 l636 -3 0 -125z m1905 -335 l0 -115 508 -2
507 -3 0 -130 0 -130 -640 0 -640 0 -3 248 -2 247 135 0 135 0 0 -115z m-2618
-532 l3 -58 153 -3 152 -3 0 -74 0 -75 -437 2 -438 3 0 70 0 70 153 3 152 3 0
59 0 60 130 0 129 0 3 -57z m713 -623 l0 -555 -130 0 -130 0 -3 88 -3 87 -29
0 -30 0 0 130 0 130 30 0 30 0 0 85 0 85 -30 0 -30 0 0 130 0 130 30 0 30 0 0
125 0 126 133 -3 132 -3 0 -555z m945 485 l0 -75 -124 0 c-69 0 -127 -3 -129
-7 -3 -5 6 -44 18 -88 86 -302 245 -865 245 -870 0 -3 -46 -5 -103 -5 l-103 0
-43 153 c-109 385 -144 503 -150 515 -6 10 -65 -189 -185 -618 l-13 -45 -102
-3 c-89 -2 -101 -1 -101 14 0 9 39 153 86 318 157 551 174 613 174 625 0 8
-37 11 -120 11 l-120 0 0 75 0 75 385 0 385 0 0 -75z m260 -895 l0 -970 -80 0
-80 0 0 635 0 634 -57 3 -58 3 -3 127 -3 127 58 3 58 3 3 203 2 202 80 0 80 0
0 -970z m255 0 l0 -965 -82 -3 -83 -3 0 971 0 971 83 -3 82 -3 0 -965z m1465
890 l0 -80 -507 -2 -508 -3 0 -70 0 -70 508 -3 507 -2 0 -100 0 -100 -640 0
-640 0 0 255 0 255 640 0 640 0 0 -80z m-3438 -277 l108 -108 0 -220 0 -220
-112 -112 -113 -113 -210 0 -210 0 -118 118 -117 117 0 209 0 209 112 114 112
113 220 0 221 0 107 -107z m3438 -408 l0 -75 -640 0 -640 0 0 75 0 75 640 0
640 0 0 -75z m0 -505 l0 -250 -507 -2 -508 -3 -3 -97 -3 -98 508 -2 508 -3 3
-102 3 -103 -641 0 -640 0 0 280 0 280 505 0 505 0 0 75 0 75 -505 0 -505 0 0
100 0 100 640 0 640 0 0 -250z m-3038 -67 l118 -118 0 -130 0 -129 -117 -113
-118 -113 -355 0 -355 0 -112 112 -113 113 0 135 0 135 112 112 113 113 355 0
355 0 117 -117z"/>
<path d="M570 4285 l0 -205 375 0 375 0 0 205 0 205 -375 0 -375 0 0 -205z"/>
<path d="M2030 4075 l0 -415 175 0 175 0 0 415 0 415 -175 0 -175 0 0 -415z"/>
<path d="M3497 4234 c-4 -4 -7 -135 -7 -291 l0 -283 175 0 175 0 -2 288 -3
287 -166 3 c-91 1 -168 -1 -172 -4z"/>
<path d="M570 1915 l0 -175 175 0 175 0 0 175 0 175 -175 0 -175 0 0 -175z"/>
<path d="M690 1023 l0 -93 315 0 315 0 0 90 0 89 -315 3 -315 3 0 -92z"/>
</g>
</svg>
